<mxfile host="app.diagrams.net" agent="Mozilla/5.0 (Windows NT 10.0; Win64; x64) AppleWebKit/537.36 (KHTML, like Gecko) Chrome/134.0.0.0 Safari/537.36" version="26.1.0">
  <diagram name="Página-1" id="fJ328dLKhWkzOIIOaobB">
    <mxGraphModel dx="1434" dy="1949" grid="1" gridSize="10" guides="1" tooltips="1" connect="1" arrows="1" fold="1" page="1" pageScale="1" pageWidth="827" pageHeight="1169" math="0" shadow="0">
      <root>
        <mxCell id="0" />
        <mxCell id="1" parent="0" />
        <object label="&lt;h1&gt;Aplicação/Query builder&lt;/h1&gt;" nome="Query builder" id="AtnoQmZaIrdG3QzwIMW3-2">
          <mxCell style="rounded=1;whiteSpace=wrap;html=1;" vertex="1" parent="1">
            <mxGeometry x="390" y="190" width="240" height="110" as="geometry" />
          </mxCell>
        </object>
        <mxCell id="AtnoQmZaIrdG3QzwIMW3-3" value="&lt;h3&gt;Postgres&lt;/h3&gt;" style="shape=cylinder3;whiteSpace=wrap;html=1;boundedLbl=1;backgroundOutline=1;size=15;" vertex="1" parent="1">
          <mxGeometry x="374" y="430" width="80" height="110" as="geometry" />
        </mxCell>
        <mxCell id="AtnoQmZaIrdG3QzwIMW3-4" value="&lt;h3&gt;Mariadb&lt;/h3&gt;" style="shape=cylinder3;whiteSpace=wrap;html=1;boundedLbl=1;backgroundOutline=1;size=15;" vertex="1" parent="1">
          <mxGeometry x="570" y="430" width="80" height="110" as="geometry" />
        </mxCell>
        <mxCell id="AtnoQmZaIrdG3QzwIMW3-5" value="" style="endArrow=classic;html=1;rounded=0;entryX=0.25;entryY=1;entryDx=0;entryDy=0;exitX=0.5;exitY=0;exitDx=0;exitDy=0;exitPerimeter=0;" edge="1" parent="1" source="AtnoQmZaIrdG3QzwIMW3-3" target="AtnoQmZaIrdG3QzwIMW3-2">
          <mxGeometry width="50" height="50" relative="1" as="geometry">
            <mxPoint x="390" y="430" as="sourcePoint" />
            <mxPoint x="440" y="380" as="targetPoint" />
          </mxGeometry>
        </mxCell>
        <mxCell id="AtnoQmZaIrdG3QzwIMW3-6" value="" style="endArrow=classic;html=1;rounded=0;entryX=0.75;entryY=1;entryDx=0;entryDy=0;" edge="1" parent="1" target="AtnoQmZaIrdG3QzwIMW3-2">
          <mxGeometry width="50" height="50" relative="1" as="geometry">
            <mxPoint x="600" y="430" as="sourcePoint" />
            <mxPoint x="650" y="380" as="targetPoint" />
          </mxGeometry>
        </mxCell>
        <object label="&lt;h1&gt;Página web/Formulário criar consultas&lt;/h1&gt;" nome="Query builder" id="AtnoQmZaIrdG3QzwIMW3-7">
          <mxCell style="rounded=1;whiteSpace=wrap;html=1;" vertex="1" parent="1">
            <mxGeometry x="390" width="240" height="110" as="geometry" />
          </mxCell>
        </object>
        <mxCell id="AtnoQmZaIrdG3QzwIMW3-9" value="" style="endArrow=classic;startArrow=classic;html=1;rounded=0;entryX=0.5;entryY=1;entryDx=0;entryDy=0;exitX=0.5;exitY=0;exitDx=0;exitDy=0;" edge="1" parent="1" source="AtnoQmZaIrdG3QzwIMW3-2" target="AtnoQmZaIrdG3QzwIMW3-7">
          <mxGeometry width="50" height="50" relative="1" as="geometry">
            <mxPoint x="490" y="180" as="sourcePoint" />
            <mxPoint x="540" y="130" as="targetPoint" />
          </mxGeometry>
        </mxCell>
        <object label="&lt;h1&gt;Criação de conexão com banco de dados/API&lt;/h1&gt;" nome="Query builder" id="AtnoQmZaIrdG3QzwIMW3-10">
          <mxCell style="rounded=1;whiteSpace=wrap;html=1;" vertex="1" parent="1">
            <mxGeometry x="20" y="10" width="240" height="110" as="geometry" />
          </mxCell>
        </object>
        <mxCell id="AtnoQmZaIrdG3QzwIMW3-18" style="edgeStyle=orthogonalEdgeStyle;rounded=0;orthogonalLoop=1;jettySize=auto;html=1;" edge="1" parent="1" source="AtnoQmZaIrdG3QzwIMW3-11" target="AtnoQmZaIrdG3QzwIMW3-15">
          <mxGeometry relative="1" as="geometry" />
        </mxCell>
        <object label="&lt;h1&gt;Integração com API/Banco de dados&lt;/h1&gt;" nome="Query builder" id="AtnoQmZaIrdG3QzwIMW3-11">
          <mxCell style="rounded=1;whiteSpace=wrap;html=1;" vertex="1" parent="1">
            <mxGeometry x="20" y="200" width="240" height="110" as="geometry" />
          </mxCell>
        </object>
        <mxCell id="AtnoQmZaIrdG3QzwIMW3-13" value="" style="endArrow=classic;html=1;rounded=0;" edge="1" parent="1" target="AtnoQmZaIrdG3QzwIMW3-11">
          <mxGeometry width="50" height="50" relative="1" as="geometry">
            <mxPoint x="140" y="110" as="sourcePoint" />
            <mxPoint x="180" y="140" as="targetPoint" />
          </mxGeometry>
        </mxCell>
        <mxCell id="AtnoQmZaIrdG3QzwIMW3-20" style="edgeStyle=orthogonalEdgeStyle;rounded=0;orthogonalLoop=1;jettySize=auto;html=1;exitX=0.5;exitY=1;exitDx=0;exitDy=0;entryX=0.5;entryY=1;entryDx=0;entryDy=0;entryPerimeter=0;" edge="1" parent="1" source="AtnoQmZaIrdG3QzwIMW3-15" target="AtnoQmZaIrdG3QzwIMW3-4">
          <mxGeometry relative="1" as="geometry">
            <mxPoint x="610" y="590" as="targetPoint" />
          </mxGeometry>
        </mxCell>
        <mxCell id="AtnoQmZaIrdG3QzwIMW3-21" value="" style="edgeStyle=orthogonalEdgeStyle;rounded=0;orthogonalLoop=1;jettySize=auto;html=1;" edge="1" parent="1" source="AtnoQmZaIrdG3QzwIMW3-15" target="AtnoQmZaIrdG3QzwIMW3-3">
          <mxGeometry relative="1" as="geometry" />
        </mxCell>
        <object label="&lt;h1&gt;importar dados da API para inserir na base de dados&lt;/h1&gt;" nome="Query builder" id="AtnoQmZaIrdG3QzwIMW3-15">
          <mxCell style="rounded=1;whiteSpace=wrap;html=1;" vertex="1" parent="1">
            <mxGeometry x="20" y="430" width="240" height="110" as="geometry" />
          </mxCell>
        </object>
        <object label="&lt;h1&gt;Salvar consulta/view/parametros&lt;/h1&gt;&lt;div&gt;&lt;br&gt;&lt;/div&gt;" nome="Query builder" id="AtnoQmZaIrdG3QzwIMW3-22">
          <mxCell style="rounded=1;whiteSpace=wrap;html=1;" vertex="1" parent="1">
            <mxGeometry x="740" y="175" width="320" height="140" as="geometry" />
          </mxCell>
        </object>
        <mxCell id="AtnoQmZaIrdG3QzwIMW3-24" value="" style="endArrow=classic;startArrow=classic;html=1;rounded=0;entryX=0;entryY=0.5;entryDx=0;entryDy=0;exitX=1;exitY=0.5;exitDx=0;exitDy=0;" edge="1" parent="1" source="AtnoQmZaIrdG3QzwIMW3-2" target="AtnoQmZaIrdG3QzwIMW3-22">
          <mxGeometry width="50" height="50" relative="1" as="geometry">
            <mxPoint x="650" y="270" as="sourcePoint" />
            <mxPoint x="710" y="230" as="targetPoint" />
          </mxGeometry>
        </mxCell>
        <mxCell id="AtnoQmZaIrdG3QzwIMW3-28" style="edgeStyle=orthogonalEdgeStyle;rounded=0;orthogonalLoop=1;jettySize=auto;html=1;entryX=1;entryY=0;entryDx=0;entryDy=75;entryPerimeter=0;" edge="1" parent="1" source="AtnoQmZaIrdG3QzwIMW3-22" target="AtnoQmZaIrdG3QzwIMW3-4">
          <mxGeometry relative="1" as="geometry">
            <Array as="points">
              <mxPoint x="830" y="505" />
            </Array>
          </mxGeometry>
        </mxCell>
        <mxCell id="AtnoQmZaIrdG3QzwIMW3-30" style="edgeStyle=orthogonalEdgeStyle;rounded=0;orthogonalLoop=1;jettySize=auto;html=1;entryX=0.5;entryY=1;entryDx=0;entryDy=0;entryPerimeter=0;" edge="1" parent="1" source="AtnoQmZaIrdG3QzwIMW3-22" target="AtnoQmZaIrdG3QzwIMW3-3">
          <mxGeometry relative="1" as="geometry">
            <Array as="points">
              <mxPoint x="1010" y="600" />
              <mxPoint x="414" y="600" />
            </Array>
          </mxGeometry>
        </mxCell>
        <mxCell id="AtnoQmZaIrdG3QzwIMW3-33" style="edgeStyle=orthogonalEdgeStyle;rounded=0;orthogonalLoop=1;jettySize=auto;html=1;" edge="1" parent="1" source="AtnoQmZaIrdG3QzwIMW3-31">
          <mxGeometry relative="1" as="geometry">
            <mxPoint x="580" y="190" as="targetPoint" />
            <Array as="points">
              <mxPoint x="910" y="140" />
              <mxPoint x="580" y="140" />
              <mxPoint x="580" y="190" />
            </Array>
          </mxGeometry>
        </mxCell>
        <object label="&lt;h1&gt;Rota API para retornar as views&lt;/h1&gt;" nome="Query builder" id="AtnoQmZaIrdG3QzwIMW3-31">
          <mxCell style="rounded=1;whiteSpace=wrap;html=1;" vertex="1" parent="1">
            <mxGeometry x="790" y="10" width="240" height="110" as="geometry" />
          </mxCell>
        </object>
      </root>
    </mxGraphModel>
  </diagram>
</mxfile>
